<svg width="30" height="24" viewBox="0 0 30 24" fill="none" xmlns="http://www.w3.org/2000/svg">
<g clip-path="url(#clip0_54_32)">
<path d="M19.4437 1.91191L13.4437 22.9124C13.2141 23.7093 12.3844 24.1686 11.5875 23.9436C10.7906 23.7139 10.3312 22.8843 10.5562 22.0874L16.5563 1.08785C16.7859 0.291253 17.6156 -0.169997 18.4125 0.0576276C19.2094 0.285206 19.6687 1.1155 19.4437 1.91191ZM24.3094 5.6905L29.5594 10.9405C30.1453 11.5264 30.1453 12.4733 29.5594 13.0593L24.3094 18.3093C23.7234 18.8952 22.7766 18.8952 22.1906 18.3093C21.6047 17.7233 21.6047 16.7764 22.1906 16.1905L26.3766 11.9999L22.1906 7.80926C21.6047 7.22332 21.6047 6.27644 22.1906 5.6905C22.7766 5.10457 23.7234 5.10457 24.3094 5.6905ZM7.80938 7.80926L3.62109 11.9999L7.80938 16.1905C8.39531 16.7764 8.39531 17.7233 7.80938 18.3093C7.22344 18.8952 6.27656 18.8952 5.69063 18.3093L0.439312 13.0593C-0.146438 12.4733 -0.146438 11.5264 0.439312 10.9405L5.69063 5.6905C6.27656 5.10457 7.22344 5.10457 7.80938 5.6905C8.39531 6.27644 8.39531 7.22332 7.80938 7.80926Z" fill="#64607D"/>
</g>
<defs>
<clipPath id="clip0_54_32">
<rect width="30" height="24" fill="white"/>
</clipPath>
</defs>
</svg>
